External Loads File
version=1
nRows=94
nColumns=13
Range=5.000000e-03-10 seconds
endheader
time 	forceRightX 	forceRightY 	forceRightZ 	pointRightX 	pointRightY 	pointRightZ 	forceLeftX 	forceLeftY 	forceLeftZ 	pointLeftX 	pointLeftY 	pointLeftZ 		
0.005000 24.875431 175.306612 -0.000000 0.379695 0.368904 -0.097620 45.802597 207.169405 -0.000000 0.051858 0.290898 -0.336381
0.010000 23.905230 175.689999 -0.000000 0.379687 0.368945 -0.097632 47.605394 207.382681 -0.000000 0.051857 0.290902 -0.336382
0.015000 22.987311 176.062623 -0.000000 0.379683 0.368977 -0.097634 49.170891 207.561843 -0.000000 0.051862 0.290871 -0.336380
0.020000 22.186858 176.404181 -0.000000 0.379679 0.369014 -0.097639 50.372434 207.699320 -0.000000 0.051858 0.290845 -0.336381
0.025000 21.411625 176.716968 -0.000000 0.379638 0.369373 -0.097628 51.065620 207.835417 -0.000000 0.052072 0.290927 -0.336297
0.030000 20.634930 176.998252 -0.000000 0.379602 0.370051 -0.097603 51.303801 207.994794 -0.000000 0.051804 0.290828 -0.336438
0.035000 20.375029 177.181715 -0.000000 0.379600 0.370092 -0.097588 51.804519 208.022479 -0.000000 0.051787 0.290783 -0.336439
0.040000 20.264687 177.300511 -0.000000 0.379594 0.370131 -0.097593 52.213167 207.995601 -0.000000 0.051766 0.290750 -0.336434
0.045000 20.239159 177.354174 -0.000000 0.379590 0.370166 -0.097590 52.512168 207.909479 -0.000000 0.051751 0.290724 -0.336444
0.050000 20.248089 177.351742 -0.000000 0.379589 0.370198 -0.097589 52.709336 207.779206 -0.000000 0.051756 0.290697 -0.336446
0.055000 20.242339 177.311279 -0.000000 0.379583 0.370240 -0.097603 52.813082 207.633250 -0.000000 0.051758 0.290626 -0.336447
0.060000 20.249878 177.244384 -0.000000 0.379574 0.370291 -0.097595 52.888437 207.475404 -0.000000 0.051757 0.290589 -0.336444
0.065000 20.255025 177.167944 -0.000000 0.379576 0.370340 -0.097593 52.891144 207.313402 -0.000000 0.051759 0.290533 -0.336453
0.070000 20.304038 177.091900 -0.000000 0.379562 0.370382 -0.097592 52.813116 207.131031 -0.000000 0.051757 0.290497 -0.336460
0.075000 20.398761 177.026194 -0.000000 0.379562 0.370442 -0.097609 52.631538 206.930353 -0.000000 0.051770 0.290459 -0.336458
0.080000 20.542659 176.970733 -0.000000 0.379565 0.370502 -0.097596 52.393960 206.718833 -0.000000 0.051779 0.290399 -0.336456
0.085000 20.726747 176.917885 -0.000000 0.379548 0.370555 -0.097608 52.151821 206.502181 -0.000000 0.051784 0.290354 -0.336459
0.090000 20.877156 176.862210 -0.000000 0.379547 0.370617 -0.097619 51.869932 206.298538 -0.000000 0.051794 0.290286 -0.336454
0.095000 20.960080 176.792431 -0.000000 0.379539 0.370675 -0.097619 51.571723 206.123634 -0.000000 0.051813 0.290204 -0.336445
0.100000 20.969744 176.695545 -0.000000 0.379531 0.370750 -0.097621 51.328008 206.001858 -0.000000 0.051820 0.290138 -0.336460
0.105000 20.924906 176.559221 -0.000000 0.379527 0.370811 -0.097619 51.213952 205.949435 -0.000000 0.051830 0.290071 -0.336463
0.110000 20.850793 176.378133 -0.000000 0.379520 0.370853 -0.097593 51.239916 205.954921 -0.000000 0.051840 0.290007 -0.336472
0.115000 20.753922 176.160647 -0.000000 0.379506 0.370909 -0.097595 51.319957 205.984430 -0.000000 0.051848 0.289955 -0.336471
0.120000 20.656806 175.922685 -0.000000 0.379502 0.370974 -0.097605 51.395960 206.000212 -0.000000 0.051858 0.289911 -0.336467
0.125000 20.548366 175.686565 -0.000000 0.379506 0.371072 -0.097591 51.463273 205.999938 -0.000000 0.051867 0.289851 -0.336474
0.130000 20.470642 175.463854 -0.000000 0.379497 0.371139 -0.097590 51.631017 205.978637 -0.000000 0.051887 0.289797 -0.336472
0.135000 20.397512 175.266515 -0.000000 0.379502 0.371205 -0.097597 51.874534 205.941696 -0.000000 0.051901 0.289744 -0.336480
0.140000 20.309996 175.099023 -0.000000 0.379492 0.371263 -0.097578 52.102093 205.888969 -0.000000 0.051921 0.289675 -0.336474
0.145000 20.234467 174.955732 -0.000000 0.379483 0.371319 -0.097577 52.260375 205.820465 -0.000000 0.051934 0.289629 -0.336489
0.150000 20.174649 174.831691 -0.000000 0.379478 0.371385 -0.097579 52.298375 205.753802 -0.000000 0.051948 0.289577 -0.336472
0.155000 20.163129 174.720223 -0.000000 0.379474 0.371438 -0.097574 52.222202 205.691785 -0.000000 0.051962 0.289509 -0.336472
0.160000 20.210604 174.618470 -0.000000 0.379468 0.371494 -0.097575 52.020703 205.626427 -0.000000 0.051994 0.289454 -0.336466
0.165000 20.279615 174.527898 -0.000000 0.379465 0.371563 -0.097581 51.649298 205.551686 -0.000000 0.052003 0.289368 -0.336472
0.170000 20.391327 174.441912 -0.000000 0.379462 0.371622 -0.097591 51.186177 205.450849 -0.000000 0.052022 0.289320 -0.336470
0.175000 20.502158 174.365240 -0.000000 0.379448 0.371682 -0.097597 50.672476 205.344549 -0.000000 0.052036 0.289244 -0.336463
0.180000 20.955930 174.267633 -0.000000 0.379441 0.371145 -0.097614 50.572039 205.147239 -0.000000 0.052050 0.289189 -0.336466
0.185000 21.164386 174.237201 -0.000000 0.379426 0.371215 -0.097613 50.182416 205.036321 -0.000000 0.052062 0.289121 -0.336471
0.190000 21.450849 174.244984 -0.000000 0.379415 0.371280 -0.097612 49.862831 204.919373 -0.000000 0.052074 0.289055 -0.336462
0.195000 21.779431 174.285187 -0.000000 0.379417 0.371372 -0.097436 49.601489 204.808571 -0.000000 0.052083 0.288990 -0.336458
0.200000 22.131559 174.337200 -0.000000 0.379395 0.371418 -0.097430 49.454769 204.709075 -0.000000 0.052101 0.288925 -0.336455
0.205000 22.436712 174.389325 -0.000000 0.379391 0.371484 -0.097427 49.410727 204.633556 -0.000000 0.052116 0.288873 -0.336451
0.210000 22.650377 174.437930 -0.000000 0.379379 0.371562 -0.097419 49.428556 204.576304 -0.000000 0.052120 0.288815 -0.336460
0.215000 22.468716 174.523695 -0.000000 0.379374 0.372275 -0.097413 49.120481 204.603364 -0.000000 0.052127 0.288761 -0.336461
0.220000 22.566597 174.567164 -0.000000 0.379370 0.372319 -0.097428 49.262169 204.525655 -0.000000 0.052125 0.288700 -0.336458
0.225000 22.659941 174.617470 -0.000000 0.379366 0.372373 -0.097429 49.508053 204.448216 -0.000000 0.052134 0.288651 -0.336461
0.230000 22.805416 174.682018 -0.000000 0.379363 0.372416 -0.097428 49.848572 204.373200 -0.000000 0.052145 0.288611 -0.336467
0.235000 23.024902 174.766814 -0.000000 0.379368 0.372438 -0.097436 50.192411 204.289104 -0.000000 0.052150 0.288573 -0.336463
0.240000 23.272727 174.871514 -0.000000 0.379359 0.372483 -0.097435 50.446867 204.199262 -0.000000 0.052155 0.288530 -0.336462
0.245000 23.533559 174.976126 -0.000000 0.379365 0.372517 -0.097440 50.680926 204.111790 -0.000000 0.052148 0.288493 -0.336464
0.250000 23.754126 175.057342 -0.000000 0.379366 0.372551 -0.097438 50.952848 204.049550 -0.000000 0.052146 0.288460 -0.336463
0.255000 23.896964 175.087943 -0.000000 0.379359 0.372585 -0.097439 51.265637 204.012935 -0.000000 0.052151 0.288428 -0.336456
0.260000 23.946975 175.042907 -0.000000 0.379366 0.372608 -0.097441 51.560713 203.974518 -0.000000 0.052153 0.288397 -0.336454
0.265000 23.888662 174.916834 -0.000000 0.379354 0.372645 -0.097436 51.745493 203.911110 -0.000000 0.052161 0.288376 -0.336455
0.270000 23.760091 174.725416 -0.000000 0.379356 0.372675 -0.097446 51.810794 203.811471 -0.000000 0.052158 0.288352 -0.336453
0.275000 23.588893 174.500180 -0.000000 0.379358 0.372704 -0.097431 51.762256 203.685122 -0.000000 0.052153 0.288326 -0.336453
0.280000 23.395490 174.268872 -0.000000 0.379349 0.372729 -0.097429 51.596565 203.540428 -0.000000 0.052155 0.288307 -0.336456
0.285000 23.177624 174.054711 -0.000000 0.379347 0.372756 -0.097432 51.292711 203.390345 -0.000000 0.052160 0.288287 -0.336450
0.290000 22.944204 173.873698 -0.000000 0.379351 0.372784 -0.097432 50.898115 203.252727 -0.000000 0.052157 0.288260 -0.336458
0.295000 22.723984 173.731498 -0.000000 0.379338 0.372797 -0.097434 50.533899 203.146760 -0.000000 0.052166 0.288239 -0.336459
0.300000 22.536293 173.627717 -0.000000 0.379344 0.372812 -0.097433 50.284143 203.088172 -0.000000 0.052159 0.288219 -0.336445
0.305000 22.385128 173.557526 -0.000000 0.379343 0.372850 -0.097440 50.133105 203.074979 -0.000000 0.052163 0.288204 -0.336450
0.310000 22.307171 173.503675 -0.000000 0.379338 0.372874 -0.097439 50.046225 203.072081 -0.000000 0.052162 0.288199 -0.336449
0.315000 22.284057 173.450580 -0.000000 0.379339 0.372881 -0.097439 49.940931 203.054959 -0.000000 0.052169 0.288160 -0.336455
0.320000 22.346996 173.380923 -0.000000 0.379326 0.372889 -0.097428 49.865662 203.001313 -0.000000 0.052175 0.288165 -0.336452
0.325000 22.455242 173.293284 -0.000000 0.379335 0.372891 -0.097418 49.839192 202.925108 -0.000000 0.052186 0.288145 -0.336448
0.330000 22.573916 173.181743 -0.000000 0.379326 0.372910 -0.097420 49.865646 202.828654 -0.000000 0.052192 0.288132 -0.336450
0.335000 22.674774 173.035563 -0.000000 0.379324 0.372912 -0.097423 49.900147 202.690545 -0.000000 0.052196 0.288129 -0.336455
0.340000 22.702582 172.857286 -0.000000 0.379332 0.372922 -0.097420 49.858199 202.500271 -0.000000 0.052199 0.288123 -0.336447
0.345000 22.659313 172.655450 -0.000000 0.379327 0.372913 -0.097435 49.772483 202.263450 -0.000000 0.052195 0.288113 -0.336453
0.350000 22.542038 172.443211 -0.000000 0.379319 0.372913 -0.097430 49.705741 202.013899 -0.000000 0.052207 0.288116 -0.336454
0.355000 22.361342 172.227899 -0.000000 0.379332 0.372907 -0.097440 49.709185 201.775289 -0.000000 0.052201 0.288114 -0.336458
0.360000 22.108310 172.012333 -0.000000 0.379326 0.372922 -0.097438 49.743901 201.552067 -0.000000 0.052211 0.288126 -0.336462
0.365000 21.802324 171.792822 -0.000000 0.379331 0.372925 -0.097438 49.741391 201.329960 -0.000000 0.052226 0.288125 -0.336455
0.370000 21.480852 171.573520 -0.000000 0.379328 0.372922 -0.097429 49.639129 201.104531 -0.000000 0.052232 0.288116 -0.336463
0.375000 21.206629 171.371993 -0.000000 0.379329 0.372926 -0.097434 49.454987 200.885157 -0.000000 0.052230 0.288127 -0.336468
0.380000 21.003761 171.214806 -0.000000 0.379327 0.372925 -0.097444 49.222501 200.691144 -0.000000 0.052242 0.288116 -0.336463
0.385000 20.899628 171.115392 -0.000000 0.379330 0.372935 -0.097431 48.981592 200.519389 -0.000000 0.052247 0.288110 -0.336464
0.390000 20.918715 171.070468 -0.000000 0.379323 0.372919 -0.097445 48.746021 200.359545 -0.000000 0.052248 0.288118 -0.336467
0.395000 21.004702 171.072328 -0.000000 0.379325 0.372935 -0.097431 48.464433 200.240591 -0.000000 0.052258 0.288080 -0.336476
0.400000 21.211065 171.088763 -0.000000 0.379313 0.372946 -0.097425 48.275664 200.174008 -0.000000 0.052263 0.288088 -0.336470
0.405000 21.467656 171.100809 -0.000000 0.379322 0.372968 -0.097434 48.183115 200.193294 -0.000000 0.052275 0.288056 -0.336466
0.410000 21.785536 171.089034 -0.000000 0.379309 0.372971 -0.097438 48.225772 200.274484 -0.000000 0.052274 0.288046 -0.336468
0.415000 22.108496 171.056938 -0.000000 0.379314 0.372984 -0.097434 48.296711 200.383988 -0.000000 0.052278 0.288022 -0.336466
0.420000 22.435910 171.014285 -0.000000 0.379309 0.373001 -0.097441 48.345971 200.473901 -0.000000 0.052269 0.288021 -0.336475
0.425000 22.737270 170.980274 -0.000000 0.379312 0.373024 -0.097450 48.355716 200.534220 -0.000000 0.052287 0.288000 -0.336471
0.430000 23.045342 170.961509 -0.000000 0.379308 0.373021 -0.097449 48.451503 200.564087 -0.000000 0.052288 0.287991 -0.336477
0.435000 23.324716 170.968555 -0.000000 0.379299 0.373045 -0.097449 48.645238 200.579057 -0.000000 0.052290 0.287963 -0.336470
0.440000 23.628718 170.996481 -0.000000 0.379302 0.373056 -0.097440 48.936420 200.549575 -0.000000 0.052290 0.287951 -0.336468
0.445000 23.937898 171.038225 -0.000000 0.379308 0.373081 -0.097455 49.191283 200.459535 -0.000000 0.052294 0.287935 -0.336468
0.450000 24.244724 171.064914 -0.000000 0.379307 0.373091 -0.097451 49.381950 200.300047 -0.000000 0.052308 0.287921 -0.336460
0.455000 24.485647 171.044711 -0.000000 0.379300 0.373104 -0.097462 49.541704 200.096399 -0.000000 0.052309 0.287904 -0.336455
0.460000 24.585564 170.958841 -0.000000 0.379294 0.373158 -0.097451 49.718658 199.889164 -0.000000 0.052314 0.287891 -0.336460
0.465000 24.547323 170.806160 -0.000000 0.379289 0.373170 -0.097452 49.954128 199.693271 -0.000000 0.052331 0.287851 -0.336453
0.470000 24.384890 170.612468 -0.000000 0.379291 0.373246 -0.097445 50.155086 199.514797 -0.000000 0.052340 0.287826 -0.336451
